<svg id="visual" viewBox="0 0 960 540" width="960" height="540" xmlns="http://www.w3.org/2000/svg" xmlns:xlink="http://www.w3.org/1999/xlink" version="1.1"><rect x="0" y="0" width="960" height="540" fill="#000000"></rect><path d="M0 338L107 313L213 346L320 302L427 315L533 312L640 345L747 301L853 318L960 280L960 541L853 541L747 541L640 541L533 541L427 541L320 541L213 541L107 541L0 541Z" fill="#000000"></path><path d="M0 312L107 336L213 330L320 368L427 334L533 363L640 367L747 342L853 382L960 356L960 541L853 541L747 541L640 541L533 541L427 541L320 541L213 541L107 541L0 541Z" fill="#051a41"></path><path d="M0 390L107 367L213 403L320 402L427 381L533 371L640 409L747 366L853 352L960 360L960 541L853 541L747 541L640 541L533 541L427 541L320 541L213 541L107 541L0 541Z" fill="#222f59"></path><path d="M0 393L107 418L213 393L320 426L427 428L533 419L640 388L747 406L853 391L960 435L960 541L853 541L747 541L640 541L533 541L427 541L320 541L213 541L107 541L0 541Z" fill="#3b4572"></path><path d="M0 424L107 423L213 458L320 452L427 440L533 427L640 453L747 415L853 443L960 431L960 541L853 541L747 541L640 541L533 541L427 541L320 541L213 541L107 541L0 541Z" fill="#545d8c"></path><path d="M0 486L107 465L213 457L320 481L427 486L533 461L640 484L747 486L853 481L960 452L960 541L853 541L747 541L640 541L533 541L427 541L320 541L213 541L107 541L0 541Z" fill="#6e75a7"></path><path d="M0 505L107 497L213 494L320 498L427 491L533 498L640 485L747 507L853 506L960 492L960 541L853 541L747 541L640 541L533 541L427 541L320 541L213 541L107 541L0 541Z" fill="#888fc2"></path></svg>