<svg id="visual" viewBox="0 0 900 600" width="900" height="600" xmlns="http://www.w3.org/2000/svg" xmlns:xlink="http://www.w3.org/1999/xlink" version="1.1"><path d="M0 307L129 370L257 313L386 317L514 357L643 348L771 314L900 321L900 601L771 601L643 601L514 601L386 601L257 601L129 601L0 601Z" fill="#ffffff"></path><path d="M0 385L129 404L257 352L386 374L514 370L643 411L771 377L900 396L900 601L771 601L643 601L514 601L386 601L257 601L129 601L0 601Z" fill="#dfe5fe"></path><path d="M0 445L129 462L257 431L386 415L514 443L643 447L771 436L900 409L900 601L771 601L643 601L514 601L386 601L257 601L129 601L0 601Z" fill="#bdccfd"></path><path d="M0 497L129 485L257 513L386 492L514 505L643 510L771 487L900 510L900 601L771 601L643 601L514 601L386 601L257 601L129 601L0 601Z" fill="#98b4fc"></path><path d="M0 540L129 519L257 529L386 524L514 523L643 543L771 527L900 546L900 601L771 601L643 601L514 601L386 601L257 601L129 601L0 601Z" fill="#6d9cfa"></path></svg>